<svg xmlns="http://www.w3.org/2000/svg" width="338.868" height="332" viewBox="0 0 338.86792452830184 332"><path fill="none" stroke="#000" d="M55 260h280M55 236h280M55 212h280M55 188h280M55 164h280M55 140h280M55 116h280M55 92h280M55 68h280M55 44h280M55 20h280" opacity=".3"/><path fill="none" stroke="#000" d="M89.34 266v-6" stroke-width="2"/><path fill="#80f6ff" d="M70.85 260v-96h36.98v96"/><path fill="#80f6ff" stroke="#000" d="M142.17 266v-6" stroke-width="2"/><path fill="#80f6ff" d="M123.679 260V68h36.981v192"/><path fill="#80f6ff" stroke="#000" d="M195 266v-6" stroke-width="2"/><path fill="#80f6ff" d="M176.509 260v-96h36.982v96"/><path fill="#80f6ff" stroke="#000" d="M247.83 266v-6" stroke-width="2"/><path fill="#80f6ff" d="M229.34 260V92h36.981v168"/><path fill="#80f6ff" stroke="#000" d="M300.66 266v-6" stroke-width="2"/><path fill="#80f6ff" d="M282.17 260V44h36.981v216"/><path fill="#80f6ff" stroke="#000" d="M55 260h280M55 260V20" stroke-width="2"/></svg>
